<mxfile host="app.diagrams.net" agent="Mozilla/5.0 (Windows NT 10.0; Win64; x64) AppleWebKit/537.36 (KHTML, like Gecko) Chrome/131.0.0.0 Safari/537.36" version="25.0.3">
  <diagram name="Seite-1" id="lnY5gsaEIoU9uc5bQO_Y">
    <mxGraphModel dx="1050" dy="557" grid="1" gridSize="10" guides="1" tooltips="1" connect="1" arrows="1" fold="1" page="1" pageScale="1" pageWidth="827" pageHeight="1169" math="0" shadow="0">
      <root>
        <mxCell id="0" />
        <mxCell id="1" parent="0" />
        <mxCell id="IPeYyVT-tUiNGtd1HVKz-6" style="edgeStyle=orthogonalEdgeStyle;rounded=0;orthogonalLoop=1;jettySize=auto;html=1;exitX=0.5;exitY=1;exitDx=0;exitDy=0;entryX=0.5;entryY=0;entryDx=0;entryDy=0;endArrow=none;endFill=0;" edge="1" parent="1" source="IPeYyVT-tUiNGtd1HVKz-9" target="IPeYyVT-tUiNGtd1HVKz-5">
          <mxGeometry relative="1" as="geometry">
            <Array as="points">
              <mxPoint x="194" y="230" />
              <mxPoint x="414" y="230" />
            </Array>
          </mxGeometry>
        </mxCell>
        <mxCell id="IPeYyVT-tUiNGtd1HVKz-1" value="Photovoltaikanlage 1&lt;div&gt;(Verwaltung)&lt;/div&gt;" style="shape=image;html=1;verticalAlign=top;verticalLabelPosition=bottom;labelBackgroundColor=#ffffff;imageAspect=0;aspect=fixed;image=https://cdn1.iconfinder.com/data/icons/science-technology-outline-24-px/24/tech_solar_panelsolar_cellsolar_energy_panelsolar_system-128.png" vertex="1" parent="1">
          <mxGeometry x="130" y="30" width="128" height="128" as="geometry" />
        </mxCell>
        <mxCell id="IPeYyVT-tUiNGtd1HVKz-8" style="edgeStyle=orthogonalEdgeStyle;rounded=0;orthogonalLoop=1;jettySize=auto;html=1;exitX=0.5;exitY=1;exitDx=0;exitDy=0;entryX=0.5;entryY=0;entryDx=0;entryDy=0;endArrow=none;endFill=0;" edge="1" parent="1" source="IPeYyVT-tUiNGtd1HVKz-11" target="IPeYyVT-tUiNGtd1HVKz-5">
          <mxGeometry relative="1" as="geometry">
            <Array as="points">
              <mxPoint x="634" y="230" />
              <mxPoint x="414" y="230" />
            </Array>
          </mxGeometry>
        </mxCell>
        <mxCell id="IPeYyVT-tUiNGtd1HVKz-2" value="Photovoltaikanlage 2&lt;div&gt;(Halle21B)&lt;/div&gt;" style="shape=image;html=1;verticalAlign=top;verticalLabelPosition=bottom;labelBackgroundColor=#ffffff;imageAspect=0;aspect=fixed;image=https://cdn1.iconfinder.com/data/icons/science-technology-outline-24-px/24/tech_solar_panelsolar_cellsolar_energy_panelsolar_system-128.png" vertex="1" parent="1">
          <mxGeometry x="570" y="30" width="128" height="128" as="geometry" />
        </mxCell>
        <mxCell id="IPeYyVT-tUiNGtd1HVKz-7" style="edgeStyle=orthogonalEdgeStyle;rounded=0;orthogonalLoop=1;jettySize=auto;html=1;exitX=0.5;exitY=1;exitDx=0;exitDy=0;entryX=0.5;entryY=0;entryDx=0;entryDy=0;endArrow=none;endFill=0;" edge="1" parent="1" source="IPeYyVT-tUiNGtd1HVKz-3" target="IPeYyVT-tUiNGtd1HVKz-5">
          <mxGeometry relative="1" as="geometry" />
        </mxCell>
        <mxCell id="IPeYyVT-tUiNGtd1HVKz-3" value="Fertigung" style="shape=image;editableCssRules=.*;verticalLabelPosition=bottom;labelBackgroundColor=default;verticalAlign=top;aspect=fixed;imageAspect=0;image=data:image/svg+xml,PHN2ZyB4bWxucz0iaHR0cDovL3d3dy53My5vcmcvMjAwMC9zdmciIHZpZXdCb3g9Ii0wLjUgLTAuNSAyOCAyOCIgaGVpZ2h0PSIyOCIgd2lkdGg9IjI4Ij4mI3hhOwkgIDxzdHlsZSB0eXBlPSJ0ZXh0L2NzcyI+LnN0MCB7IHN0b3AtY29sb3I6IHJnYig5MSwgMTE1LCAxMzkpOyB9IC5zdDEgeyBzdG9wLWNvbG9yOiByZ2IoMzQsIDUzLCA3Mik7IH0gPC9zdHlsZT4mI3hhOwk8ZGVmcz4mI3hhOwkJPGxpbmVhckdyYWRpZW50IGdyYWRpZW50VW5pdHM9InVzZXJTcGFjZU9uVXNlIiB5Mj0iMjUuMzA5IiB4Mj0iMjMuNDU0IiB5MT0iMy40NzQiIHgxPSIyLjAzOSIgaWQ9IkEiPiYjeGE7CQkJPHN0b3AgY2xhc3M9InN0MCIvPiYjeGE7CQkJPHN0b3AgY2xhc3M9InN0MSIgb2Zmc2V0PSIxIi8+JiN4YTsJCTwvbGluZWFyR3JhZGllbnQ+JiN4YTsJPC9kZWZzPiYjeGE7CTxwYXRoIGZpbGw9InVybCgjQSkiIGQ9Ik0yNi45OTYgMTIuNDIybC02LjY1LTUuNTE2YTEuNCAxLjQgMCAwIDAtMS40ODQtLjE5NmMtLjQ5LjIyNC0uNzk4LjcyOC0uNzk4IDEuMjc0djIuNTM0TDEzLjcxIDYuOTA2YTEuNCAxLjQgMCAwIDAtMS40ODQtLjE5NmMtLjQ5LjIyNC0uNzk4LjcyOC0uNzk4IDEuMjc0VjEyLjFIOC41ODZWLjljMC0uNzctLjYzLTEuNC0xLjQtMS40SC45Qy4xMy0uNS0uNS4xMy0uNS45djI1LjJjMCAuNzcuNjMgMS40IDEuNCAxLjRoMjUuMmMuNzcgMCAxLjQtLjYzIDEuNC0xLjRWMTMuNWExLjM5IDEuMzkgMCAwIDAtLjUwNC0xLjA3OHpNNS43NTggMjQuN0gyLjN2LTMuNWgzLjQ1OHptMC02LjNIMi4zdi0zLjVoMy40NTh6bTAtNi4zSDIuM1Y4LjgyNGgzLjQ1OHptMC02LjA3NkgyLjNWMi4zaDMuNDU4ek0yNC42ODYgMjQuN0g4LjU1OHYtMy41aDEuODQ4Yy43NyAwIDEuNC0uNjMgMS40LTEuNHMtLjYzLTEuNC0xLjQtMS40SDguNTU4di0zLjVIMTIuOGMuNzcgMCAxLjQtLjYzIDEuNC0xLjR2LTIuNTM0bDQuMzU0IDMuNjEyYTEuNCAxLjQgMCAwIDAgMS40ODQuMTk2Yy40OS0uMjI0Ljc5OC0uNzI4Ljc5OC0xLjI3NHYtMi41MzRsMy44NSAzLjE5MnptLTkuMzY2LTMuMTVhMS43NSAxLjc1IDAgMSAwIDAtMy41IDEuNzUgMS43NSAwIDEgMCAwIDMuNXptNi45My0xLjc1YTEuNzUgMS43NSAwIDEgMS0zLjUgMCAxLjc1IDEuNzUgMCAxIDEgMy41IDB6IiBmaWxsLXJ1bGU9ImV2ZW5vZGQiLz4mI3hhOzwvc3ZnPg==;" vertex="1" parent="1">
          <mxGeometry x="354" y="34" width="120" height="120" as="geometry" />
        </mxCell>
        <mxCell id="IPeYyVT-tUiNGtd1HVKz-5" value="Netzzugang&lt;div&gt;(Trafo 3)&lt;/div&gt;" style="whiteSpace=wrap;html=1;aspect=fixed;" vertex="1" parent="1">
          <mxGeometry x="349" y="310" width="130" height="130" as="geometry" />
        </mxCell>
        <mxCell id="IPeYyVT-tUiNGtd1HVKz-10" value="" style="edgeStyle=orthogonalEdgeStyle;rounded=0;orthogonalLoop=1;jettySize=auto;html=1;exitX=0.5;exitY=1;exitDx=0;exitDy=0;entryX=0.5;entryY=0;entryDx=0;entryDy=0;endArrow=none;endFill=0;" edge="1" parent="1" source="IPeYyVT-tUiNGtd1HVKz-2" target="IPeYyVT-tUiNGtd1HVKz-11">
          <mxGeometry relative="1" as="geometry">
            <mxPoint x="634" y="158" as="sourcePoint" />
            <mxPoint x="414" y="310" as="targetPoint" />
          </mxGeometry>
        </mxCell>
        <mxCell id="IPeYyVT-tUiNGtd1HVKz-11" value="" style="html=1;verticalLabelPosition=bottom;align=center;labelBackgroundColor=#ffffff;verticalAlign=top;strokeWidth=2;strokeColor=#0080F0;shadow=0;dashed=0;shape=mxgraph.ios7.icons.clock;" vertex="1" parent="1">
          <mxGeometry x="619" y="215" width="30" height="30" as="geometry" />
        </mxCell>
        <mxCell id="IPeYyVT-tUiNGtd1HVKz-12" value="" style="edgeStyle=orthogonalEdgeStyle;rounded=0;orthogonalLoop=1;jettySize=auto;html=1;exitX=0.5;exitY=1;exitDx=0;exitDy=0;entryX=0.5;entryY=0;entryDx=0;entryDy=0;endArrow=none;endFill=0;" edge="1" parent="1" source="IPeYyVT-tUiNGtd1HVKz-1" target="IPeYyVT-tUiNGtd1HVKz-9">
          <mxGeometry relative="1" as="geometry">
            <mxPoint x="194" y="158" as="sourcePoint" />
            <mxPoint x="414" y="310" as="targetPoint" />
          </mxGeometry>
        </mxCell>
        <mxCell id="IPeYyVT-tUiNGtd1HVKz-9" value="" style="html=1;verticalLabelPosition=bottom;align=center;labelBackgroundColor=#ffffff;verticalAlign=top;strokeWidth=2;strokeColor=#0080F0;shadow=0;dashed=0;shape=mxgraph.ios7.icons.clock;" vertex="1" parent="1">
          <mxGeometry x="179" y="215" width="30" height="30" as="geometry" />
        </mxCell>
        <mxCell id="IPeYyVT-tUiNGtd1HVKz-15" style="edgeStyle=orthogonalEdgeStyle;rounded=0;orthogonalLoop=1;jettySize=auto;html=1;exitX=0;exitY=0.5;exitDx=0;exitDy=0;entryX=1;entryY=0.5;entryDx=0;entryDy=0;endArrow=none;endFill=0;" edge="1" parent="1" source="IPeYyVT-tUiNGtd1HVKz-14" target="IPeYyVT-tUiNGtd1HVKz-5">
          <mxGeometry relative="1" as="geometry" />
        </mxCell>
        <mxCell id="IPeYyVT-tUiNGtd1HVKz-13" value="Ã–ffentliches Netz" style="shape=image;html=1;verticalAlign=top;verticalLabelPosition=bottom;labelBackgroundColor=#ffffff;imageAspect=0;aspect=fixed;image=https://cdn3.iconfinder.com/data/icons/energy-and-power-glyph-24-px/24/Electricity_pole_electricity_pylon_power_mast_transmission_pole_utility_pylon-128.png" vertex="1" parent="1">
          <mxGeometry x="619" y="311" width="128" height="128" as="geometry" />
        </mxCell>
        <mxCell id="IPeYyVT-tUiNGtd1HVKz-16" value="" style="edgeStyle=orthogonalEdgeStyle;rounded=0;orthogonalLoop=1;jettySize=auto;html=1;exitX=0;exitY=0.5;exitDx=0;exitDy=0;entryX=1;entryY=0.5;entryDx=0;entryDy=0;endArrow=none;endFill=0;" edge="1" parent="1" source="IPeYyVT-tUiNGtd1HVKz-13" target="IPeYyVT-tUiNGtd1HVKz-14">
          <mxGeometry relative="1" as="geometry">
            <mxPoint x="619" y="375" as="sourcePoint" />
            <mxPoint x="479" y="375" as="targetPoint" />
          </mxGeometry>
        </mxCell>
        <mxCell id="IPeYyVT-tUiNGtd1HVKz-14" value="" style="html=1;verticalLabelPosition=bottom;align=center;labelBackgroundColor=#ffffff;verticalAlign=top;strokeWidth=2;strokeColor=#0080F0;shadow=0;dashed=0;shape=mxgraph.ios7.icons.clock;" vertex="1" parent="1">
          <mxGeometry x="530" y="360" width="30" height="30" as="geometry" />
        </mxCell>
      </root>
    </mxGraphModel>
  </diagram>
</mxfile>
